# xmcd
#
# Track frame offsets: 
#        150
#        21978
#        36837
#        54588
#        76137
#        90296
#        107184
#        123232
#        141516
#        154838
#        172252
#        187678
#        210871
#        232828
#        246766
#        261095
#        277997
#
# Disc length: 4018 seconds
#
# Revision: 0
# Processed by: cddbd v1.5.2PL0 Copyright (c) Steve Scherf et al.
# Submitted via: ExactAudioCopy v0.99pb4
#
DISCID=da0fb011
DTITLE=Dana Winner - Puur
DYEAR=2016
DGENRE=Chanson
TTITLE0=Weer Verder Gaan
TTITLE1=Jij Bent De Zon and Ik De Maan
TTITLE2=Een Zee Vol Dromen
TTITLE3=Duizend Jaar
TTITLE4=Zondagskind
TTITLE5=De Man Van Mijn Dromen
TTITLE6=Een Nieuwe Dag
TTITLE7=Ik Laat Je Nu Maar Gaan
TTITLE8=Foto
TTITLE9=En De Wind Die Waait
TTITLE10=Through Before We Started
TTITLE11=One Moment In Time
TTITLE12=Weer Verder Gaan (Live)
TTITLE13=Beter Dan Je Stoutste Droom (Live)
TTITLE14=Wervelwind (Live)
TTITLE15=Een Zee Vol Dromen (Live)
TTITLE16=One Moment In Time (Live)
EXTD=
EXTT0=
EXTT1=
EXTT2=
EXTT3=
EXTT4=
EXTT5=
EXTT6=
EXTT7=
EXTT8=
EXTT9=
EXTT10=
EXTT11=
EXTT12=
EXTT13=
EXTT14=
EXTT15=
EXTT16=
PLAYORDER=
